<svg width="220" height="54" viewBox="0 0 220 54" fill="none" xmlns="http://www.w3.org/2000/svg">
<path d="M27.011 9H9.00366C4.03108 9 0 13.0311 0 18.0037V36.011C0 36.753 0.089752 37.474 0.25899 38.1638C16.1608 38.0254 29.0254 25.1608 29.1638 9.25899C28.474 9.08975 27.753 9 27.011 9Z" fill="white"/>
<path d="M36.0146 36.011V18.0037C36.0146 16.9617 35.8376 15.961 35.512 15.0301C32.9736 30.0889 21.0889 41.9736 6.03009 44.512C6.96099 44.8376 7.96165 45.0146 9.00366 45.0146H27.011C31.9836 45.0146 36.0146 40.9836 36.0146 36.011Z" fill="white"/>
<path d="M50.3184 45.5078L61.2144 10.9478H69.6864L80.5824 45.5078H74.6304L64.7424 14.4998H66.0384L56.2704 45.5078H50.3184ZM56.3904 38.0198V32.6198H74.5344V38.0198H56.3904ZM88.5196 45.5078L80.5996 19.5398L86.2636 19.5878L91.3276 36.2198L96.4636 19.5878H101.336L106.448 36.2198L111.536 19.5878H117.2L109.28 45.5078H104.768L98.8876 27.6758L93.0316 45.5078H88.5196ZM127.326 46.2278C125.454 46.2278 123.87 45.8758 122.574 45.1718C121.278 44.4518 120.294 43.4998 119.622 42.3158C118.966 41.1318 118.638 39.8278 118.638 38.4038C118.638 37.1558 118.846 36.0358 119.262 35.0438C119.678 34.0358 120.318 33.1718 121.182 32.4518C122.046 31.7158 123.166 31.1158 124.542 30.6518C125.582 30.3158 126.798 30.0118 128.19 29.7398C129.598 29.4678 131.118 29.2198 132.75 28.9958C134.398 28.7558 136.118 28.4998 137.91 28.2278L135.846 29.4038C135.862 27.6118 135.462 26.2918 134.646 25.4438C133.83 24.5958 132.454 24.1718 130.518 24.1718C129.35 24.1718 128.222 24.4438 127.134 24.9878C126.046 25.5318 125.286 26.4678 124.854 27.7958L119.574 26.1398C120.214 23.9478 121.43 22.1878 123.222 20.8598C125.03 19.5318 127.462 18.8678 130.518 18.8678C132.822 18.8678 134.846 19.2438 136.59 19.9958C138.35 20.7478 139.654 21.9798 140.502 23.6918C140.966 24.6038 141.246 25.5398 141.342 26.4998C141.438 27.4438 141.486 28.4758 141.486 29.5958V45.5078H136.422V39.8918L137.262 40.8038C136.094 42.6758 134.726 44.0518 133.158 44.9318C131.606 45.7958 129.662 46.2278 127.326 46.2278ZM128.478 41.6198C129.79 41.6198 130.91 41.3878 131.838 40.9238C132.766 40.4598 133.502 39.8918 134.046 39.2198C134.606 38.5478 134.982 37.9158 135.174 37.3238C135.478 36.5878 135.646 35.7478 135.678 34.8038C135.726 33.8438 135.75 33.0678 135.75 32.4758L137.526 33.0038C135.782 33.2758 134.286 33.5158 133.038 33.7238C131.79 33.9318 130.718 34.1318 129.822 34.3238C128.926 34.4998 128.134 34.6998 127.446 34.9238C126.774 35.1638 126.206 35.4438 125.742 35.7638C125.278 36.0838 124.918 36.4518 124.662 36.8678C124.422 37.2838 124.302 37.7718 124.302 38.3318C124.302 38.9718 124.462 39.5398 124.782 40.0358C125.102 40.5158 125.566 40.8998 126.174 41.1878C126.798 41.4758 127.566 41.6198 128.478 41.6198ZM147.734 45.5078V19.5878H152.846V25.8998L152.222 25.0838C152.542 24.2198 152.966 23.4358 153.494 22.7318C154.038 22.0118 154.686 21.4198 155.438 20.9558C156.078 20.5238 156.782 20.1878 157.55 19.9478C158.334 19.6918 159.134 19.5398 159.95 19.4918C160.766 19.4278 161.558 19.4598 162.326 19.5878V24.9878C161.558 24.7638 160.67 24.6918 159.662 24.7718C158.67 24.8518 157.774 25.1318 156.974 25.6118C156.174 26.0438 155.518 26.5958 155.006 27.2678C154.51 27.9398 154.142 28.7078 153.902 29.5718C153.662 30.4198 153.542 31.3398 153.542 32.3318V45.5078H147.734ZM176.829 46.2278C174.445 46.2278 172.365 45.6278 170.589 44.4278C168.813 43.2278 167.437 41.5958 166.461 39.5318C165.485 37.4678 164.997 35.1398 164.997 32.5478C164.997 29.9238 165.485 27.5878 166.461 25.5398C167.453 23.4758 168.853 21.8518 170.661 20.6678C172.469 19.4678 174.597 18.8678 177.045 18.8678C179.509 18.8678 181.573 19.4678 183.237 20.6678C184.917 21.8518 186.189 23.4758 187.053 25.5398C187.917 27.6038 188.349 29.9398 188.349 32.5478C188.349 35.1238 187.917 37.4518 187.053 39.5318C186.189 41.5958 184.901 43.2278 183.189 44.4278C181.477 45.6278 179.357 46.2278 176.829 46.2278ZM177.717 41.0438C179.269 41.0438 180.517 40.6918 181.461 39.9878C182.421 39.2678 183.117 38.2678 183.549 36.9878C183.997 35.7078 184.221 34.2278 184.221 32.5478C184.221 30.8518 183.997 29.3718 183.549 28.1078C183.117 26.8278 182.437 25.8358 181.509 25.1318C180.581 24.4118 179.381 24.0518 177.909 24.0518C176.357 24.0518 175.077 24.4358 174.069 25.2038C173.061 25.9558 172.317 26.9798 171.837 28.2758C171.357 29.5558 171.117 30.9798 171.117 32.5478C171.117 34.1318 171.349 35.5718 171.813 36.8678C172.293 38.1478 173.021 39.1638 173.997 39.9158C174.973 40.6678 176.213 41.0438 177.717 41.0438ZM184.221 45.5078V27.3158H183.501V10.9478H189.333V45.5078H184.221ZM206.07 46.2278C202.87 46.2278 200.27 45.5078 198.27 44.0678C196.27 42.6278 195.054 40.6038 194.622 37.9958L200.526 37.0838C200.83 38.3638 201.502 39.3718 202.542 40.1078C203.582 40.8438 204.894 41.2118 206.478 41.2118C207.87 41.2118 208.942 40.9398 209.694 40.3958C210.462 39.8358 210.846 39.0758 210.846 38.1158C210.846 37.5238 210.702 37.0518 210.414 36.6998C210.142 36.3318 209.534 35.9798 208.59 35.6438C207.646 35.3078 206.198 34.8838 204.246 34.3718C202.07 33.7958 200.342 33.1798 199.062 32.5238C197.782 31.8518 196.862 31.0598 196.302 30.1478C195.742 29.2358 195.462 28.1318 195.462 26.8358C195.462 25.2198 195.886 23.8118 196.734 22.6118C197.582 21.4118 198.766 20.4918 200.286 19.8518C201.806 19.1958 203.598 18.8678 205.662 18.8678C207.678 18.8678 209.462 19.1798 211.014 19.8038C212.582 20.4278 213.846 21.3158 214.806 22.4678C215.766 23.6198 216.358 24.9718 216.582 26.5238L210.678 27.5798C210.534 26.4758 210.03 25.6038 209.166 24.9638C208.318 24.3238 207.182 23.9638 205.758 23.8838C204.398 23.8038 203.302 24.0118 202.47 24.5078C201.638 24.9878 201.222 25.6678 201.222 26.5478C201.222 27.0438 201.39 27.4678 201.726 27.8198C202.062 28.1718 202.734 28.5238 203.742 28.8758C204.766 29.2278 206.286 29.6598 208.302 30.1718C210.366 30.6998 212.014 31.3078 213.246 31.9958C214.494 32.6678 215.39 33.4758 215.934 34.4198C216.494 35.3638 216.774 36.5078 216.774 37.8518C216.774 40.4598 215.822 42.5078 213.918 43.9958C212.03 45.4838 209.414 46.2278 206.07 46.2278Z" fill="white"/>
</svg>
