<svg width="146" height="27" viewBox="0 0 146 27" fill="none" xmlns="http://www.w3.org/2000/svg">
<path d="M40.2554 21.6461C39.976 21.6461 39.7494 21.4197 39.7491 21.1403L39.7339 6.48748C39.7335 6.12536 40.027 5.8316 40.3891 5.8316H43.2294C43.5068 5.8316 43.7325 6.05472 43.7357 6.33204L43.7463 7.23909C44.3032 6.66977 44.9693 6.22169 45.7446 5.89486C46.5199 5.55749 47.3553 5.3888 48.2507 5.3888C48.6135 5.3888 48.9762 5.41957 49.339 5.4811C49.7239 5.54639 49.9246 5.95831 49.7783 6.32027L48.7207 8.93677C48.587 9.26752 48.2138 9.42279 47.8635 9.3554C47.6541 9.31512 47.4446 9.29497 47.2352 9.29497C46.5909 9.29497 46.0012 9.44785 45.4662 9.7536C44.942 10.0488 44.5216 10.4547 44.2049 10.9713C43.8992 11.4774 43.7463 12.0414 43.7463 12.6635V20.9909C43.7463 21.3528 43.4529 21.6461 43.0911 21.6461H40.2554Z" fill="#4246FF"/>
<path d="M51.8262 6.4868C51.8262 6.12494 52.1195 5.8316 52.4814 5.8316H55.1677C55.5295 5.8316 55.8229 6.12494 55.8229 6.4868V20.9909C55.8229 21.3527 55.5295 21.6461 55.1677 21.6461H52.4814C52.1195 21.6461 51.8262 21.3527 51.8262 20.9909V6.4868Z" fill="#4246FF"/>
<path d="M64.3363 21.9307C63.4845 21.878 62.6601 21.7146 61.8629 21.4405C61.0767 21.1558 60.3778 20.771 59.7663 20.286C59.3452 19.9521 58.9915 19.5732 58.705 19.1492C58.4936 18.8364 58.6523 18.4249 59.0013 18.281L61.2186 17.3665C61.5148 17.2443 61.8569 17.3567 62.0859 17.5808C62.1703 17.6634 62.2653 17.7481 62.3707 17.8348C62.6656 18.0667 63.015 18.2618 63.419 18.4199C63.834 18.5781 64.2872 18.6572 64.7786 18.6572C65.1935 18.6572 65.5866 18.6044 65.9579 18.499C66.3401 18.383 66.6459 18.2091 66.8752 17.9771C67.1154 17.7452 67.2355 17.4447 67.2355 17.0757C67.2355 16.6856 67.0936 16.3851 66.8097 16.1743C66.5367 15.9529 66.1872 15.7895 65.7613 15.684C65.3464 15.5681 64.9424 15.4626 64.5492 15.3677C63.5118 15.1674 62.5454 14.8564 61.65 14.4347C60.7655 14.013 60.0502 13.47 59.5042 12.8058C58.9692 12.131 58.7016 11.3192 58.7016 10.3704C58.7016 9.3266 58.9855 8.42518 59.5534 7.66608C60.1321 6.90699 60.8801 6.32185 61.7974 5.91067C62.7256 5.4995 63.7248 5.29391 64.7949 5.29391C66.0944 5.29391 67.2847 5.55749 68.3658 6.08463C69.2318 6.49434 69.9536 7.04 70.5312 7.72159C70.7768 8.01148 70.6732 8.44284 70.3431 8.63108L68.3474 9.7692C68.0387 9.94527 67.6478 9.83667 67.3901 9.59192C67.317 9.52254 67.2382 9.45519 67.1536 9.38986C66.8806 9.16846 66.5694 8.98923 66.22 8.85217C65.8705 8.70457 65.5047 8.62022 65.1225 8.59914C64.6311 8.57805 64.1834 8.62022 63.7794 8.72565C63.3753 8.83108 63.0478 9.01031 62.7966 9.26335C62.5564 9.51638 62.4362 9.85375 62.4362 10.2755C62.4362 10.6761 62.6 10.9766 62.9276 11.1769C63.2552 11.3667 63.6483 11.5143 64.107 11.6197C64.5765 11.7251 65.0243 11.8411 65.4501 11.9676C66.4111 12.2734 67.312 12.6476 68.1528 13.0905C69.0046 13.5333 69.6871 14.0762 70.2003 14.7193C70.7135 15.3625 70.9592 16.1321 70.9374 17.0283C70.9374 18.0509 70.6207 18.9471 69.9874 19.7167C69.354 20.4758 68.535 21.0557 67.5304 21.4563C66.5367 21.8569 65.472 22.0151 64.3363 21.9307Z" fill="#4246FF"/>
<path d="M80.6919 22.0573C79.1849 22.0573 77.809 21.683 76.5641 20.9344C75.3302 20.1859 74.3419 19.179 73.5994 17.9139C72.8677 16.6487 72.5019 15.2518 72.5019 13.723C72.5019 12.5738 72.7149 11.4985 73.1407 10.4969C73.5666 9.48475 74.1508 8.59914 74.8934 7.84004C75.6469 7.0704 76.5205 6.46945 77.5142 6.03719C78.5079 5.60493 79.5671 5.3888 80.6919 5.3888C81.9695 5.3888 83.1379 5.65237 84.1972 6.17952C85.2673 6.69613 86.1737 7.40778 86.9162 8.31448C87.6588 9.22117 88.1993 10.2544 88.5378 11.4141C88.8259 12.401 88.9242 13.426 88.8327 14.4892C88.8048 14.8131 88.5262 15.0514 88.2011 15.0514H76.7935C76.9463 15.6419 77.1975 16.1743 77.5469 16.6487C77.8964 17.1126 78.3386 17.4869 78.8737 17.7715C79.4088 18.0457 80.0148 18.188 80.6919 18.1985C81.3907 18.2091 82.0241 18.0509 82.5919 17.7241C83.043 17.4612 83.4343 17.1278 83.7659 16.7241C83.9376 16.5151 84.2072 16.4031 84.4711 16.4625L87.3121 17.1014C87.722 17.1936 87.9413 17.6435 87.7261 18.0043C87.0826 19.0836 86.2175 19.9918 85.1308 20.7288C83.8095 21.6145 82.3299 22.0573 80.6919 22.0573ZM76.6624 12.1574H84.7213C84.6012 11.5248 84.3446 10.9555 83.9515 10.4494C83.5693 9.93282 83.0943 9.52165 82.5264 9.2159C81.9586 8.91016 81.3471 8.75728 80.6919 8.75728C80.0367 8.75728 79.4306 8.91016 78.8737 9.2159C78.3168 9.51111 77.8418 9.91701 77.4486 10.4336C77.0664 10.9397 76.8044 11.5143 76.6624 12.1574Z" fill="#4246FF"/>
<path d="M95.4289 26.1989C95.4289 26.5608 95.1356 26.8541 94.7737 26.8541H92.0874C91.7255 26.8541 91.4322 26.5608 91.4322 26.1989V6.4868C91.4322 6.12494 91.7255 5.8316 92.0874 5.8316H94.7737C95.1356 5.8316 95.4289 6.12494 95.4289 6.4868V7.84004C95.964 7.12312 96.6192 6.54325 97.3945 6.10045C98.1807 5.6471 99.098 5.42043 100.146 5.42043C101.347 5.42043 102.467 5.63656 103.504 6.06882C104.542 6.50108 105.453 7.10203 106.24 7.87167C107.037 8.63077 107.654 9.51111 108.091 10.5127C108.538 11.5143 108.762 12.5897 108.762 13.7388C108.762 14.888 108.538 15.9687 108.091 16.9808C107.654 17.9929 107.037 18.8838 106.24 19.6535C105.453 20.4126 104.542 21.0082 103.504 21.4405C102.467 21.8728 101.347 22.0889 100.146 22.0889C99.098 22.0889 98.1807 21.8675 97.3945 21.4247C96.6192 20.9713 95.964 20.3862 95.4289 19.6693V26.1989ZM100.097 9.13683C99.2672 9.13683 98.5247 9.34769 97.8695 9.76941C97.2143 10.1806 96.7011 10.7341 96.3298 11.4299C95.9585 12.1258 95.7729 12.8954 95.7729 13.7388C95.7729 14.5823 95.9585 15.3572 96.3298 16.0636C96.7011 16.7594 97.2143 17.3182 97.8695 17.7399C98.5247 18.1511 99.2672 18.3567 100.097 18.3567C100.938 18.3567 101.708 18.1511 102.407 17.7399C103.106 17.3287 103.663 16.7752 104.077 16.0794C104.492 15.373 104.7 14.5928 104.7 13.7388C104.7 12.8954 104.492 12.1258 104.077 11.4299C103.663 10.7341 103.106 10.1806 102.407 9.76941C101.719 9.34769 100.949 9.13683 100.097 9.13683Z" fill="#4246FF"/>
<path d="M123.809 6.54489C123.775 6.16162 124.077 5.8316 124.462 5.8316H127.087C127.449 5.8316 127.742 6.12494 127.742 6.4868V20.9909C127.742 21.3527 127.449 21.6461 127.087 21.6461H124.343C124.005 21.6461 123.722 21.388 123.691 21.0508L123.565 19.6851C123.118 20.3915 122.523 20.9661 121.78 21.4089C121.048 21.8411 120.18 22.0573 119.176 22.0573C117.964 22.0573 116.828 21.8359 115.769 21.3931C114.709 20.9503 113.776 20.3388 112.968 19.5586C112.17 18.7784 111.543 17.877 111.084 16.8543C110.636 15.8316 110.412 14.7352 110.412 13.5649C110.412 12.4368 110.625 11.3772 111.051 10.3862C111.488 9.39513 112.094 8.52534 112.869 7.77678C113.645 7.02823 114.54 6.4431 115.556 6.02138C116.571 5.59966 117.663 5.3888 118.832 5.3888C119.913 5.3888 120.879 5.62074 121.731 6.08463C122.594 6.54853 123.325 7.13893 123.926 7.85586L123.809 6.54489ZM119.077 18.3409C119.929 18.3409 120.683 18.1353 121.338 17.7241C121.993 17.3129 122.506 16.7594 122.877 16.0636C123.249 15.3572 123.434 14.5823 123.434 13.7388C123.434 12.8849 123.249 12.11 122.877 11.4141C122.506 10.7077 121.988 10.149 121.321 9.73778C120.666 9.3266 119.918 9.12101 119.077 9.12101C118.237 9.12101 117.467 9.33188 116.768 9.7536C116.08 10.1648 115.528 10.7183 115.113 11.4141C114.709 12.11 114.507 12.8849 114.507 13.7388C114.507 14.5928 114.715 15.3677 115.13 16.0636C115.545 16.7594 116.096 17.3129 116.784 17.7241C117.483 18.1353 118.247 18.3409 119.077 18.3409Z" fill="#4246FF"/>
<path d="M141.187 6.25435C141.283 5.99987 141.527 5.8316 141.799 5.8316H144.642C145.1 5.8316 145.416 6.28974 145.255 6.71831L137.435 26.4304C137.339 26.6854 137.095 26.8541 136.822 26.8541H133.978C133.521 26.8541 133.204 26.3972 133.365 25.9689L135.264 21.8373C135.32 21.7149 135.326 21.5751 135.279 21.4489L129.785 6.71571C129.625 6.28756 129.942 5.8316 130.399 5.8316H133.357C133.639 5.8316 133.889 6.01178 133.978 6.27903L137.35 16.3641L141.187 6.25435Z" fill="#4246FF"/>
<path d="M55.8229 3.84571C55.8229 4.12535 55.5962 4.35204 55.3165 4.35204L52.3325 4.35206C52.0529 4.35206 51.8262 4.12536 51.8262 3.84572V2.59412C51.8262 2.31448 52.0529 2.08779 52.3325 2.08779L55.3165 2.08777C55.5962 2.08777 55.8229 2.31446 55.8229 2.5941V3.84571Z" fill="#4246FF"/>
<path d="M40.2554 21.6461C39.976 21.6461 39.7494 21.4197 39.7491 21.1403L39.7339 6.48748C39.7335 6.12536 40.027 5.8316 40.3891 5.8316H43.2294C43.5068 5.8316 43.7325 6.05472 43.7357 6.33204L43.7463 7.23909C44.3032 6.66977 44.9693 6.22169 45.7446 5.89486C46.5199 5.55749 47.3553 5.3888 48.2507 5.3888C48.6135 5.3888 48.9762 5.41957 49.339 5.4811C49.7239 5.54639 49.9246 5.95831 49.7783 6.32027L48.7207 8.93677C48.587 9.26752 48.2138 9.42279 47.8635 9.3554C47.6541 9.31512 47.4446 9.29497 47.2352 9.29497C46.5909 9.29497 46.0012 9.44785 45.4662 9.7536C44.942 10.0488 44.5216 10.4547 44.2049 10.9713C43.8992 11.4774 43.7463 12.0414 43.7463 12.6635V20.9909C43.7463 21.3528 43.4529 21.6461 43.0911 21.6461H40.2554Z" stroke="#4246FF" stroke-width="0.301235"/>
<path d="M51.8262 6.4868C51.8262 6.12494 52.1195 5.8316 52.4814 5.8316H55.1677C55.5295 5.8316 55.8229 6.12494 55.8229 6.4868V20.9909C55.8229 21.3527 55.5295 21.6461 55.1677 21.6461H52.4814C52.1195 21.6461 51.8262 21.3527 51.8262 20.9909V6.4868Z" stroke="#4246FF" stroke-width="0.301235"/>
<path d="M64.3363 21.9307C63.4845 21.878 62.6601 21.7146 61.8629 21.4405C61.0767 21.1558 60.3778 20.771 59.7663 20.286C59.3452 19.9521 58.9915 19.5732 58.705 19.1492C58.4936 18.8364 58.6523 18.4249 59.0013 18.281L61.2186 17.3665C61.5148 17.2443 61.8569 17.3567 62.0859 17.5808C62.1703 17.6634 62.2653 17.7481 62.3707 17.8348C62.6656 18.0667 63.015 18.2618 63.419 18.4199C63.834 18.5781 64.2872 18.6572 64.7786 18.6572C65.1935 18.6572 65.5866 18.6044 65.9579 18.499C66.3401 18.383 66.6459 18.2091 66.8752 17.9771C67.1154 17.7452 67.2355 17.4447 67.2355 17.0757C67.2355 16.6856 67.0936 16.3851 66.8097 16.1743C66.5367 15.9529 66.1872 15.7895 65.7613 15.684C65.3464 15.5681 64.9424 15.4626 64.5492 15.3677C63.5118 15.1674 62.5454 14.8564 61.65 14.4347C60.7655 14.013 60.0502 13.47 59.5042 12.8058C58.9692 12.131 58.7016 11.3192 58.7016 10.3704C58.7016 9.3266 58.9855 8.42518 59.5534 7.66608C60.1321 6.90699 60.8801 6.32185 61.7974 5.91067C62.7256 5.4995 63.7248 5.29391 64.7949 5.29391C66.0944 5.29391 67.2847 5.55749 68.3658 6.08463C69.2318 6.49434 69.9536 7.04 70.5312 7.72159C70.7768 8.01148 70.6732 8.44284 70.3431 8.63108L68.3474 9.7692C68.0387 9.94527 67.6478 9.83667 67.3901 9.59192C67.317 9.52254 67.2382 9.45519 67.1536 9.38986C66.8806 9.16846 66.5694 8.98923 66.22 8.85217C65.8705 8.70457 65.5047 8.62022 65.1225 8.59914C64.6311 8.57805 64.1834 8.62022 63.7794 8.72565C63.3753 8.83108 63.0478 9.01031 62.7966 9.26335C62.5564 9.51638 62.4362 9.85375 62.4362 10.2755C62.4362 10.6761 62.6 10.9766 62.9276 11.1769C63.2552 11.3667 63.6483 11.5143 64.107 11.6197C64.5765 11.7251 65.0243 11.8411 65.4501 11.9676C66.4111 12.2734 67.312 12.6476 68.1528 13.0905C69.0046 13.5333 69.6871 14.0762 70.2003 14.7193C70.7135 15.3625 70.9592 16.1321 70.9374 17.0283C70.9374 18.0509 70.6207 18.9471 69.9874 19.7167C69.354 20.4758 68.535 21.0557 67.5304 21.4563C66.5367 21.8569 65.472 22.0151 64.3363 21.9307Z" stroke="#4246FF" stroke-width="0.301235"/>
<path d="M80.6919 22.0573C79.1849 22.0573 77.809 21.683 76.5641 20.9344C75.3302 20.1859 74.3419 19.179 73.5994 17.9139C72.8677 16.6487 72.5019 15.2518 72.5019 13.723C72.5019 12.5738 72.7149 11.4985 73.1407 10.4969C73.5666 9.48475 74.1508 8.59914 74.8934 7.84004C75.6469 7.0704 76.5205 6.46945 77.5142 6.03719C78.5079 5.60493 79.5671 5.3888 80.6919 5.3888C81.9695 5.3888 83.1379 5.65237 84.1972 6.17952C85.2673 6.69613 86.1737 7.40778 86.9162 8.31448C87.6588 9.22117 88.1993 10.2544 88.5378 11.4141C88.8259 12.401 88.9242 13.426 88.8327 14.4892C88.8048 14.8131 88.5262 15.0514 88.2011 15.0514H76.7935C76.9463 15.6419 77.1975 16.1743 77.5469 16.6487C77.8964 17.1126 78.3386 17.4869 78.8737 17.7715C79.4088 18.0457 80.0148 18.188 80.6919 18.1985C81.3907 18.2091 82.0241 18.0509 82.5919 17.7241C83.043 17.4612 83.4343 17.1278 83.7659 16.7241C83.9376 16.5151 84.2072 16.4031 84.4711 16.4625L87.3121 17.1014C87.722 17.1936 87.9413 17.6435 87.7261 18.0043C87.0826 19.0836 86.2175 19.9918 85.1308 20.7288C83.8095 21.6145 82.3299 22.0573 80.6919 22.0573ZM76.6624 12.1574H84.7213C84.6012 11.5248 84.3446 10.9555 83.9515 10.4494C83.5693 9.93282 83.0943 9.52165 82.5264 9.2159C81.9586 8.91016 81.3471 8.75728 80.6919 8.75728C80.0367 8.75728 79.4306 8.91016 78.8737 9.2159C78.3168 9.51111 77.8418 9.91701 77.4486 10.4336C77.0664 10.9397 76.8044 11.5143 76.6624 12.1574Z" stroke="#4246FF" stroke-width="0.301235"/>
<path d="M95.4289 26.1989C95.4289 26.5608 95.1356 26.8541 94.7737 26.8541H92.0874C91.7255 26.8541 91.4322 26.5608 91.4322 26.1989V6.4868C91.4322 6.12494 91.7255 5.8316 92.0874 5.8316H94.7737C95.1356 5.8316 95.4289 6.12494 95.4289 6.4868V7.84004C95.964 7.12312 96.6192 6.54325 97.3945 6.10045C98.1807 5.6471 99.098 5.42043 100.146 5.42043C101.347 5.42043 102.467 5.63656 103.504 6.06882C104.542 6.50108 105.453 7.10203 106.24 7.87167C107.037 8.63077 107.654 9.51111 108.091 10.5127C108.538 11.5143 108.762 12.5897 108.762 13.7388C108.762 14.888 108.538 15.9687 108.091 16.9808C107.654 17.9929 107.037 18.8838 106.24 19.6535C105.453 20.4126 104.542 21.0082 103.504 21.4405C102.467 21.8728 101.347 22.0889 100.146 22.0889C99.098 22.0889 98.1807 21.8675 97.3945 21.4247C96.6192 20.9713 95.964 20.3862 95.4289 19.6693V26.1989ZM100.097 9.13683C99.2672 9.13683 98.5247 9.34769 97.8695 9.76941C97.2143 10.1806 96.7011 10.7341 96.3298 11.4299C95.9585 12.1258 95.7729 12.8954 95.7729 13.7388C95.7729 14.5823 95.9585 15.3572 96.3298 16.0636C96.7011 16.7594 97.2143 17.3182 97.8695 17.7399C98.5247 18.1511 99.2672 18.3567 100.097 18.3567C100.938 18.3567 101.708 18.1511 102.407 17.7399C103.106 17.3287 103.663 16.7752 104.077 16.0794C104.492 15.373 104.7 14.5928 104.7 13.7388C104.7 12.8954 104.492 12.1258 104.077 11.4299C103.663 10.7341 103.106 10.1806 102.407 9.76941C101.719 9.34769 100.949 9.13683 100.097 9.13683Z" stroke="#4246FF" stroke-width="0.301235"/>
<path d="M123.809 6.54489C123.775 6.16162 124.077 5.8316 124.462 5.8316H127.087C127.449 5.8316 127.742 6.12494 127.742 6.4868V20.9909C127.742 21.3527 127.449 21.6461 127.087 21.6461H124.343C124.005 21.6461 123.722 21.388 123.691 21.0508L123.565 19.6851C123.118 20.3915 122.523 20.9661 121.78 21.4089C121.048 21.8411 120.18 22.0573 119.176 22.0573C117.964 22.0573 116.828 21.8359 115.769 21.3931C114.709 20.9503 113.776 20.3388 112.968 19.5586C112.17 18.7784 111.543 17.877 111.084 16.8543C110.636 15.8316 110.412 14.7352 110.412 13.5649C110.412 12.4368 110.625 11.3772 111.051 10.3862C111.488 9.39513 112.094 8.52534 112.869 7.77678C113.645 7.02823 114.54 6.4431 115.556 6.02138C116.571 5.59966 117.663 5.3888 118.832 5.3888C119.913 5.3888 120.879 5.62074 121.731 6.08463C122.594 6.54853 123.325 7.13893 123.926 7.85586L123.809 6.54489ZM119.077 18.3409C119.929 18.3409 120.683 18.1353 121.338 17.7241C121.993 17.3129 122.506 16.7594 122.877 16.0636C123.249 15.3572 123.434 14.5823 123.434 13.7388C123.434 12.8849 123.249 12.11 122.877 11.4141C122.506 10.7077 121.988 10.149 121.321 9.73778C120.666 9.3266 119.918 9.12101 119.077 9.12101C118.237 9.12101 117.467 9.33188 116.768 9.7536C116.08 10.1648 115.528 10.7183 115.113 11.4141C114.709 12.11 114.507 12.8849 114.507 13.7388C114.507 14.5928 114.715 15.3677 115.13 16.0636C115.545 16.7594 116.096 17.3129 116.784 17.7241C117.483 18.1353 118.247 18.3409 119.077 18.3409Z" stroke="#4246FF" stroke-width="0.301235"/>
<path d="M141.187 6.25435C141.283 5.99987 141.527 5.8316 141.799 5.8316H144.642C145.1 5.8316 145.416 6.28974 145.255 6.71831L137.435 26.4304C137.339 26.6854 137.095 26.8541 136.822 26.8541H133.978C133.521 26.8541 133.204 26.3972 133.365 25.9689L135.264 21.8373C135.32 21.7149 135.326 21.5751 135.279 21.4489L129.785 6.71571C129.625 6.28756 129.942 5.8316 130.399 5.8316H133.357C133.639 5.8316 133.889 6.01178 133.978 6.27903L137.35 16.3641L141.187 6.25435Z" stroke="#4246FF" stroke-width="0.301235"/>
<path d="M55.8229 3.84571C55.8229 4.12535 55.5962 4.35204 55.3165 4.35204L52.3325 4.35206C52.0529 4.35206 51.8262 4.12536 51.8262 3.84572V2.59412C51.8262 2.31448 52.0529 2.08779 52.3325 2.08779L55.3165 2.08777C55.5962 2.08777 55.8229 2.31446 55.8229 2.5941V3.84571Z" stroke="#4246FF" stroke-width="0.301235"/>
<path d="M20.6351 0.209412H7.31707C3.66456 0.209412 0.703613 3.17036 0.703613 6.82287V20.1409C0.703613 20.9051 0.833244 21.6391 1.07172 22.322C1.27011 22.3275 1.46918 22.3302 1.6689 22.3302C13.3527 22.3302 22.8244 12.8586 22.8244 1.17474C22.8244 0.974998 22.8216 0.775907 22.8161 0.577498C22.1332 0.339036 21.3993 0.209412 20.6351 0.209412Z" fill="#4246FF"/>
<path d="M27.2485 20.1409V6.82287C27.2485 6.16603 27.1528 5.53154 26.9744 4.93263C25.3374 16.0518 16.546 24.8432 5.4268 26.4802C6.02573 26.6586 6.66022 26.7543 7.31707 26.7543H20.6351C24.2876 26.7543 27.2485 23.7934 27.2485 20.1409Z" fill="#4246FF"/>
</svg>
