<svg width="1351" height="250" viewBox="0 0 1351 250" fill="none" xmlns="http://www.w3.org/2000/svg">
<path d="M369.757 199.953C367.149 199.953 365.033 197.84 365.03 195.231L364.889 58.4375C364.885 55.0568 367.625 52.3144 371.005 52.3144H397.522C400.111 52.3144 402.218 54.3974 402.248 56.9864L402.347 65.4543C407.546 60.1393 413.765 55.9562 421.003 52.905C428.241 49.7554 436.04 48.1806 444.399 48.1806C447.786 48.1806 451.172 48.4678 454.558 49.0423C458.152 49.6518 460.026 53.4973 458.66 56.8765L448.787 81.3032C447.539 84.391 444.054 85.8405 440.784 85.2114C438.829 84.8353 436.874 84.6473 434.918 84.6473C428.904 84.6473 423.399 86.0745 418.403 88.9288C413.51 91.6847 409.585 95.4741 406.629 100.297C403.774 105.021 402.347 110.287 402.347 116.094V193.836C402.347 197.215 399.608 199.953 396.23 199.953H369.757Z" fill="white"/>
<path d="M477.778 58.4311C477.778 55.053 480.517 52.3144 483.895 52.3144H508.973C512.351 52.3144 515.09 55.053 515.09 58.4311V193.836C515.09 197.215 512.351 199.953 508.973 199.953H483.895C480.517 199.953 477.778 197.215 477.778 193.836V58.4311Z" fill="white"/>
<path d="M594.568 202.611C586.617 202.118 578.92 200.593 571.478 198.034C564.138 195.376 557.613 191.784 551.905 187.256C547.974 184.139 544.671 180.601 541.997 176.643C540.023 173.723 541.505 169.881 544.763 168.537L565.463 160C568.228 158.86 571.421 159.909 573.559 162C574.348 162.772 575.234 163.563 576.218 164.372C578.971 166.538 582.233 168.358 586.005 169.835C589.879 171.311 594.11 172.049 598.697 172.049C602.571 172.049 606.241 171.557 609.707 170.573C613.275 169.49 616.13 167.866 618.271 165.701C620.513 163.536 621.635 160.73 621.635 157.286C621.635 153.644 620.309 150.839 617.659 148.87C615.11 146.803 611.848 145.278 607.872 144.293C603.998 143.211 600.226 142.226 596.556 141.341C586.872 139.47 577.849 136.567 569.49 132.63C561.233 128.693 554.555 123.624 549.458 117.423C544.463 111.124 541.965 103.545 541.965 94.6867C541.965 84.9426 544.616 76.5272 549.917 69.4405C555.32 62.3539 562.303 56.8912 570.866 53.0526C579.532 49.214 588.86 47.2947 598.85 47.2947C610.982 47.2947 622.093 49.7554 632.186 54.6767C640.271 58.5016 647.01 63.5956 652.401 69.9587C654.695 72.665 653.728 76.6921 650.646 78.4494L632.015 89.0745C629.133 90.7183 625.483 89.7044 623.077 87.4194C622.396 86.7718 621.66 86.143 620.87 85.5331C618.322 83.4662 615.416 81.7929 612.154 80.5134C608.892 79.1354 605.476 78.348 601.908 78.1512C597.321 77.9543 593.141 78.348 589.369 79.3323C585.597 80.3166 582.539 81.9898 580.194 84.352C577.951 86.7142 576.83 89.8638 576.83 93.8009C576.83 97.5411 578.359 100.346 581.418 102.216C584.476 103.988 588.146 105.366 592.428 106.35C596.811 107.334 600.991 108.417 604.967 109.598C613.938 112.453 622.348 115.947 630.198 120.081C638.15 124.214 644.521 129.283 649.313 135.287C654.104 141.291 656.398 148.476 656.194 156.843C656.194 166.39 653.238 174.756 647.325 181.941C641.412 189.028 633.766 194.441 624.387 198.181C615.11 201.922 605.171 203.398 594.568 202.611Z" fill="white"/>
<path d="M747.258 203.792C733.19 203.792 720.345 200.298 708.723 193.309C697.204 186.321 687.978 176.921 681.045 165.11C674.215 153.299 670.8 140.258 670.8 125.986C670.8 115.258 672.788 105.218 676.764 95.8678C680.74 86.419 686.194 78.1512 693.126 71.0645C700.16 63.8795 708.316 58.2692 717.593 54.2337C726.87 50.1983 736.758 48.1806 747.258 48.1806C759.186 48.1806 770.094 50.6412 779.983 55.5625C789.973 60.3853 798.435 67.0291 805.367 75.4937C812.299 83.9583 817.345 93.604 820.506 104.431C823.195 113.644 824.113 123.213 823.258 133.139C822.998 136.163 820.397 138.388 817.362 138.388H710.864C712.291 143.9 714.636 148.87 717.898 153.299C721.161 157.63 725.289 161.124 730.285 163.782C735.28 166.341 740.938 167.669 747.258 167.768C753.783 167.866 759.696 166.39 764.997 163.339C769.207 160.884 772.861 157.772 775.957 154.003C777.559 152.052 780.077 151.007 782.54 151.561L809.063 157.526C812.89 158.386 814.936 162.586 812.928 165.955C806.92 176.031 798.844 184.509 788.699 191.39C776.364 199.658 762.55 203.792 747.258 203.792ZM709.641 111.37H784.876C783.755 105.464 781.359 100.149 777.689 95.4249C774.121 90.602 769.686 86.7634 764.385 83.9091C759.084 81.0548 753.375 79.6276 747.258 79.6276C741.142 79.6276 735.484 81.0548 730.285 83.9091C725.085 86.665 720.651 90.4544 716.981 95.2773C713.413 100.002 710.966 105.366 709.641 111.37Z" fill="white"/>
<path d="M884.838 242.457C884.838 245.835 882.1 248.573 878.722 248.573H853.643C850.265 248.573 847.527 245.835 847.527 242.457V58.4311C847.527 55.053 850.265 52.3144 853.643 52.3144H878.722C882.1 52.3144 884.838 55.053 884.838 58.4311V71.0645C889.834 64.3716 895.95 58.9582 903.188 54.8243C910.528 50.592 919.092 48.4758 928.878 48.4758C940.092 48.4758 950.542 50.4936 960.226 54.529C969.911 58.5645 978.423 64.1747 985.764 71.3598C993.205 78.4465 998.965 86.665 1003.04 96.0155C1007.22 105.366 1009.31 115.405 1009.31 126.134C1009.31 136.862 1007.22 146.951 1003.04 156.4C998.965 165.849 993.205 174.166 985.764 181.351C978.423 188.437 969.911 193.998 960.226 198.034C950.542 202.069 940.092 204.087 928.878 204.087C919.092 204.087 910.528 202.02 903.188 197.886C895.95 193.654 889.834 188.191 884.838 181.498V242.457ZM928.42 83.1709C920.672 83.1709 913.74 85.1394 907.623 89.0765C901.506 92.9151 896.715 98.0824 893.249 104.579C889.783 111.075 888.05 118.26 888.05 126.134C888.05 134.008 889.783 141.242 893.249 147.837C896.715 154.333 901.506 159.549 907.623 163.486C913.74 167.325 920.672 169.244 928.42 169.244C936.269 169.244 943.457 167.325 949.981 163.486C956.505 159.648 961.705 154.48 965.578 147.984C969.452 141.39 971.389 134.106 971.389 126.134C971.389 118.26 969.452 111.075 965.578 104.579C961.705 98.0824 956.505 92.9151 949.981 89.0765C943.558 85.1394 936.371 83.1709 928.42 83.1709Z" fill="white"/>
<path d="M1149.79 58.9734C1149.47 55.3954 1152.29 52.3144 1155.88 52.3144H1180.39C1183.77 52.3144 1186.51 55.053 1186.51 58.4311V193.836C1186.51 197.215 1183.77 199.953 1180.39 199.953H1154.77C1151.61 199.953 1148.97 197.544 1148.68 194.396L1147.51 181.646C1143.33 188.24 1137.78 193.605 1130.84 197.738C1124.01 201.774 1115.91 203.792 1106.53 203.792C1095.21 203.792 1084.61 201.725 1074.72 197.591C1064.83 193.457 1056.12 187.748 1048.57 180.465C1041.13 173.181 1035.27 164.766 1030.99 155.219C1026.81 145.671 1024.72 135.435 1024.72 124.51C1024.72 113.978 1026.71 104.086 1030.68 94.8344C1034.76 85.5823 1040.42 77.4622 1047.66 70.474C1054.89 63.4858 1063.25 58.0231 1072.74 54.0861C1082.22 50.1491 1092.41 48.1806 1103.32 48.1806C1113.41 48.1806 1122.43 50.3459 1130.38 54.6767C1138.44 59.0074 1145.27 64.5192 1150.88 71.2122L1149.79 58.9734ZM1105.61 169.097C1113.56 169.097 1120.6 167.177 1126.71 163.339C1132.83 159.5 1137.62 154.333 1141.09 147.837C1144.56 141.242 1146.29 134.008 1146.29 126.134C1146.29 118.161 1144.56 110.927 1141.09 104.431C1137.62 97.8363 1132.78 92.6198 1126.56 88.7812C1120.45 84.9426 1113.46 83.0233 1105.61 83.0233C1097.76 83.0233 1090.58 84.9918 1084.05 88.9288C1077.63 92.7674 1072.48 97.9348 1068.61 104.431C1064.83 110.927 1062.95 118.161 1062.95 126.134C1062.95 134.106 1064.89 141.341 1068.76 147.837C1072.63 154.333 1077.78 159.5 1084.2 163.339C1090.73 167.177 1097.86 169.097 1105.61 169.097Z" fill="white"/>
<path d="M1312.02 56.261C1312.92 53.8854 1315.2 52.3144 1317.74 52.3144H1344.27C1348.55 52.3144 1351.5 56.5914 1349.99 60.5924L1277 244.618C1276.1 246.998 1273.82 248.573 1271.27 248.573H1244.72C1240.45 248.573 1237.5 244.308 1239 240.309L1256.73 201.738C1257.25 200.595 1257.3 199.291 1256.86 198.112L1205.57 60.5681C1204.08 56.5711 1207.04 52.3144 1211.31 52.3144H1238.92C1241.55 52.3144 1243.89 53.9965 1244.72 56.4915L1276.2 150.642L1312.02 56.261Z" fill="white"/>
<path d="M515.09 33.7748C515.09 36.3854 512.974 38.5017 510.363 38.5018L482.505 38.5019C479.894 38.5019 477.778 36.3856 477.778 33.775V22.0904C477.778 19.4798 479.894 17.3635 482.505 17.3634L510.363 17.3633C512.973 17.3633 515.09 19.4796 515.09 22.0902V33.7748Z" fill="white"/>
<path d="M186.316 1.87305H62.2551C27.9966 1.87305 0.224609 29.645 0.224609 63.9035V187.964C0.224609 193.076 0.842953 198.044 2.00891 202.796C111.564 201.843 200.195 113.213 201.148 3.65735C196.395 2.49139 191.428 1.87305 186.316 1.87305Z" fill="white"/>
<path d="M248.346 187.964V63.9035C248.346 56.7246 247.127 49.8306 244.884 43.4172C227.395 147.165 145.516 229.043 41.7688 246.532C48.1821 248.775 55.0762 249.995 62.2551 249.995H186.316C220.574 249.995 248.346 222.223 248.346 187.964Z" fill="white"/>
</svg>
