<svg width="899" height="165" viewBox="0 0 899 165" fill="none" xmlns="http://www.w3.org/2000/svg">
<g filter="url(#filter0_b_1993_8441)">
<path d="M155.407 47.8982L162.884 69.7789H163.186L170.663 47.8982H175.045L165.377 74.7637H160.694L151.026 47.8982H155.407ZM185.273 75.1704C183.288 75.1704 181.578 74.7462 180.144 73.8979C178.719 73.0409 177.617 71.8384 176.838 70.2905C176.069 68.7338 175.684 66.9104 175.684 64.8203C175.684 62.7564 176.069 60.9374 176.838 59.3633C177.617 57.7891 178.701 56.5604 180.092 55.6771C181.491 54.7938 183.126 54.3522 184.998 54.3522C186.135 54.3522 187.237 54.5402 188.304 54.9163C189.37 55.2923 190.328 55.8826 191.176 56.6872C192.025 57.4918 192.694 58.5368 193.183 59.8224C193.673 61.0992 193.918 62.6515 193.918 64.4792V65.8697H177.901V62.9313H190.074C190.074 61.8994 189.865 60.9855 189.445 60.1897C189.025 59.3851 188.435 58.7511 187.674 58.2876C186.922 57.8241 186.039 57.5923 185.024 57.5923C183.922 57.5923 182.96 57.8634 182.138 58.4056C181.325 58.9391 180.695 59.6387 180.249 60.5045C179.812 61.3616 179.593 62.2929 179.593 63.2986V65.5943C179.593 66.941 179.829 68.0867 180.302 69.0312C180.783 69.9757 181.452 70.6971 182.309 71.1956C183.166 71.6854 184.167 71.9302 185.313 71.9302C186.056 71.9302 186.734 71.8253 187.346 71.6154C187.958 71.3968 188.487 71.0732 188.933 70.6447C189.379 70.2162 189.72 69.6871 189.956 69.0574L193.669 69.7264C193.371 70.8196 192.838 71.7772 192.068 72.5992C191.308 73.4126 190.35 74.0466 189.196 74.5013C188.05 74.9474 186.743 75.1704 185.273 75.1704ZM202.192 62.8002V74.7637H198.27V54.6146H202.035V57.894H202.284C202.747 56.8271 203.473 55.9701 204.462 55.3229C205.459 54.6758 206.713 54.3522 208.226 54.3522C209.599 54.3522 210.802 54.6408 211.834 55.218C212.866 55.7864 213.666 56.6347 214.234 57.7629C214.803 58.891 215.087 60.2859 215.087 61.9475V74.7637H211.165V62.4197C211.165 60.9593 210.784 59.818 210.024 58.996C209.263 58.1651 208.218 57.7497 206.888 57.7497C205.979 57.7497 205.17 57.9465 204.462 58.3401C203.762 58.7336 203.207 59.3108 202.796 60.0716C202.393 60.8237 202.192 61.7332 202.192 62.8002ZM227.89 75.1572C226.264 75.1572 224.812 74.7418 223.535 73.911C222.267 73.0715 221.27 71.8778 220.544 70.3298C219.827 68.7732 219.468 66.9061 219.468 64.7285C219.468 62.5509 219.831 60.6882 220.557 59.1402C221.292 57.5923 222.298 56.4073 223.574 55.5853C224.851 54.7632 226.299 54.3522 227.916 54.3522C229.167 54.3522 230.173 54.5621 230.934 54.9819C231.703 55.3929 232.298 55.8739 232.718 56.4248C233.146 56.9758 233.478 57.4612 233.715 57.8809H233.951V47.8982H237.873V74.7637H234.042V71.6285H233.715C233.478 72.057 233.137 72.5468 232.691 73.0977C232.254 73.6487 231.651 74.1297 230.881 74.5407C230.111 74.9517 229.115 75.1572 227.89 75.1572ZM228.756 71.8122C229.884 71.8122 230.837 71.5148 231.616 70.9201C232.403 70.3167 232.997 69.4815 233.4 68.4146C233.811 67.3477 234.016 66.1059 234.016 64.6891C234.016 63.2899 233.815 62.0655 233.413 61.0161C233.011 59.9667 232.42 59.149 231.642 58.5631C230.864 57.9771 229.902 57.6842 228.756 57.6842C227.575 57.6842 226.592 57.9902 225.804 58.6024C225.017 59.2146 224.423 60.0498 224.02 61.1079C223.627 62.1661 223.43 63.3598 223.43 64.6891C223.43 66.0359 223.631 67.2471 224.034 68.3228C224.436 69.3985 225.03 70.2511 225.818 70.8808C226.613 71.5017 227.593 71.8122 228.756 71.8122ZM249.335 75.2097C248.058 75.2097 246.904 74.9736 245.872 74.5013C244.84 74.0204 244.022 73.3251 243.419 72.4156C242.824 71.5061 242.527 70.3911 242.527 69.0705C242.527 67.9336 242.745 66.9979 243.182 66.2633C243.62 65.5287 244.21 64.9471 244.953 64.5186C245.697 64.0901 246.527 63.7665 247.446 63.5479C248.364 63.3292 249.3 63.1631 250.253 63.0494C251.46 62.9095 252.439 62.7958 253.191 62.7083C253.943 62.6121 254.49 62.4591 254.831 62.2492C255.172 62.0393 255.343 61.6982 255.343 61.226V61.1342C255.343 59.9885 255.019 59.1009 254.372 58.4712C253.734 57.8416 252.78 57.5267 251.512 57.5267C250.192 57.5267 249.151 57.8197 248.39 58.4056C247.638 58.9828 247.118 59.6256 246.829 60.334L243.143 59.4944C243.58 58.2701 244.219 57.2819 245.058 56.5298C245.907 55.7689 246.882 55.218 247.984 54.8769C249.085 54.5271 250.244 54.3522 251.46 54.3522C252.264 54.3522 253.117 54.4484 254.018 54.6408C254.927 54.8245 255.776 55.1655 256.563 55.664C257.359 56.1625 258.01 56.8752 258.517 57.8022C259.024 58.7205 259.278 59.9142 259.278 61.3834V74.7637H255.448V72.0089H255.29C255.037 72.5162 254.656 73.0146 254.149 73.5044C253.642 73.9941 252.99 74.4008 252.194 74.7243C251.399 75.0479 250.445 75.2097 249.335 75.2097ZM250.187 72.0614C251.272 72.0614 252.199 71.8471 252.968 71.4186C253.747 70.9901 254.337 70.4304 254.739 69.7395C255.15 69.0399 255.356 68.2922 255.356 67.4964V64.899C255.216 65.0389 254.945 65.1701 254.543 65.2926C254.149 65.4062 253.699 65.5068 253.191 65.5943C252.684 65.673 252.19 65.7473 251.709 65.8173C251.228 65.8785 250.826 65.931 250.502 65.9747C249.741 66.0709 249.046 66.2327 248.416 66.4601C247.796 66.6874 247.297 67.0154 246.921 67.4439C246.554 67.8637 246.37 68.4234 246.37 69.123C246.37 70.0937 246.729 70.8283 247.446 71.3268C248.163 71.8165 249.077 72.0614 250.187 72.0614ZM274.278 74.7637V54.6146H278.07V57.8153H278.279C278.647 56.7309 279.294 55.8783 280.221 55.2573C281.157 54.6277 282.215 54.3129 283.395 54.3129C283.64 54.3129 283.929 54.3216 284.261 54.3391C284.602 54.3566 284.869 54.3784 285.061 54.4047V58.1564C284.904 58.1127 284.624 58.0646 284.222 58.0121C283.82 57.9509 283.417 57.9203 283.015 57.9203C282.088 57.9203 281.262 58.1171 280.536 58.5106C279.819 58.8954 279.25 59.4332 278.83 60.1241C278.411 60.8062 278.201 61.5846 278.201 62.4591V74.7637H274.278ZM296.418 75.1704C294.433 75.1704 292.723 74.7462 291.289 73.8979C289.864 73.0409 288.762 71.8384 287.983 70.2905C287.214 68.7338 286.829 66.9104 286.829 64.8203C286.829 62.7564 287.214 60.9374 287.983 59.3633C288.762 57.7891 289.846 56.5604 291.237 55.6771C292.636 54.7938 294.271 54.3522 296.143 54.3522C297.28 54.3522 298.382 54.5402 299.448 54.9163C300.515 55.2923 301.473 55.8826 302.321 56.6872C303.17 57.4918 303.839 58.5368 304.328 59.8224C304.818 61.0992 305.063 62.6515 305.063 64.4792V65.8697H289.046V62.9313H301.219C301.219 61.8994 301.01 60.9855 300.59 60.1897C300.17 59.3851 299.58 58.7511 298.819 58.2876C298.067 57.8241 297.183 57.5923 296.169 57.5923C295.067 57.5923 294.105 57.8634 293.283 58.4056C292.47 58.9391 291.84 59.6387 291.394 60.5045C290.957 61.3616 290.738 62.2929 290.738 63.2986V65.5943C290.738 66.941 290.974 68.0867 291.447 69.0312C291.928 69.9757 292.597 70.6971 293.454 71.1956C294.311 71.6854 295.312 71.9302 296.458 71.9302C297.201 71.9302 297.879 71.8253 298.491 71.6154C299.103 71.3968 299.632 71.0732 300.078 70.6447C300.524 70.2162 300.865 69.6871 301.101 69.0574L304.814 69.7264C304.516 70.8196 303.983 71.7772 303.213 72.5992C302.452 73.4126 301.495 74.0466 300.34 74.5013C299.195 74.9474 297.887 75.1704 296.418 75.1704ZM315.279 75.2097C314.002 75.2097 312.847 74.9736 311.815 74.5013C310.783 74.0204 309.966 73.3251 309.362 72.4156C308.768 71.5061 308.47 70.3911 308.47 69.0705C308.47 67.9336 308.689 66.9979 309.126 66.2633C309.563 65.5287 310.154 64.9471 310.897 64.5186C311.641 64.0901 312.471 63.7665 313.39 63.5479C314.308 63.3292 315.244 63.1631 316.197 63.0494C317.404 62.9095 318.383 62.7958 319.135 62.7083C319.887 62.6121 320.434 62.4591 320.775 62.2492C321.116 62.0393 321.287 61.6982 321.287 61.226V61.1342C321.287 59.9885 320.963 59.1009 320.316 58.4712C319.677 57.8416 318.724 57.5267 317.456 57.5267C316.136 57.5267 315.095 57.8197 314.334 58.4056C313.582 58.9828 313.062 59.6256 312.773 60.334L309.087 59.4944C309.524 58.2701 310.163 57.2819 311.002 56.5298C311.85 55.7689 312.825 55.218 313.927 54.8769C315.029 54.5271 316.188 54.3522 317.404 54.3522C318.208 54.3522 319.061 54.4484 319.962 54.6408C320.871 54.8245 321.719 55.1655 322.507 55.664C323.302 56.1625 323.954 56.8752 324.461 57.8022C324.968 58.7205 325.222 59.9142 325.222 61.3834V74.7637H321.391V72.0089H321.234C320.98 72.5162 320.6 73.0146 320.093 73.5044C319.586 73.9941 318.934 74.4008 318.138 74.7243C317.342 75.0479 316.389 75.2097 315.279 75.2097ZM316.131 72.0614C317.216 72.0614 318.143 71.8471 318.912 71.4186C319.691 70.9901 320.281 70.4304 320.683 69.7395C321.094 69.0399 321.3 68.2922 321.3 67.4964V64.899C321.16 65.0389 320.889 65.1701 320.486 65.2926C320.093 65.4062 319.642 65.5068 319.135 65.5943C318.628 65.673 318.134 65.7473 317.653 65.8173C317.172 65.8785 316.77 65.931 316.446 65.9747C315.685 66.0709 314.99 66.2327 314.36 66.4601C313.739 66.6874 313.241 67.0154 312.865 67.4439C312.498 67.8637 312.314 68.4234 312.314 69.123C312.314 70.0937 312.672 70.8283 313.39 71.3268C314.107 71.8165 315.021 72.0614 316.131 72.0614ZM334.368 47.8982V74.7637H330.446V47.8982H334.368ZM339.645 74.7637V54.6146H343.567V74.7637H339.645ZM341.626 51.5056C340.944 51.5056 340.358 51.2782 339.868 50.8235C339.387 50.36 339.147 49.809 339.147 49.1706C339.147 48.5235 339.387 47.9725 339.868 47.5178C340.358 47.0543 340.944 46.8225 341.626 46.8225C342.308 46.8225 342.89 47.0543 343.371 47.5178C343.86 47.9725 344.105 48.5235 344.105 49.1706C344.105 49.809 343.86 50.36 343.371 50.8235C342.89 51.2782 342.308 51.5056 341.626 51.5056ZM348.424 74.7637V72.0745L359.338 58.2089V58.0252H348.778V54.6146H364.231V57.4743L353.737 71.1694V71.353H364.599V74.7637H348.424ZM375.09 75.2097C373.813 75.2097 372.659 74.9736 371.627 74.5013C370.595 74.0204 369.777 73.3251 369.174 72.4156C368.579 71.5061 368.282 70.3911 368.282 69.0705C368.282 67.9336 368.5 66.9979 368.937 66.2633C369.375 65.5287 369.965 64.9471 370.708 64.5186C371.452 64.0901 372.282 63.7665 373.201 63.5479C374.119 63.3292 375.055 63.1631 376.008 63.0494C377.215 62.9095 378.194 62.7958 378.946 62.7083C379.698 62.6121 380.245 62.4591 380.586 62.2492C380.927 62.0393 381.098 61.6982 381.098 61.226V61.1342C381.098 59.9885 380.774 59.1009 380.127 58.4712C379.489 57.8416 378.535 57.5267 377.267 57.5267C375.947 57.5267 374.906 57.8197 374.145 58.4056C373.393 58.9828 372.873 59.6256 372.584 60.334L368.898 59.4944C369.335 58.2701 369.974 57.2819 370.813 56.5298C371.662 55.7689 372.637 55.218 373.739 54.8769C374.84 54.5271 375.999 54.3522 377.215 54.3522C378.019 54.3522 378.872 54.4484 379.773 54.6408C380.682 54.8245 381.531 55.1655 382.318 55.664C383.114 56.1625 383.765 56.8752 384.272 57.8022C384.78 58.7205 385.033 59.9142 385.033 61.3834V74.7637H381.203V72.0089H381.045C380.792 72.5162 380.411 73.0146 379.904 73.5044C379.397 73.9941 378.745 74.4008 377.949 74.7243C377.154 75.0479 376.2 75.2097 375.09 75.2097ZM375.942 72.0614C377.027 72.0614 377.954 71.8471 378.723 71.4186C379.502 70.9901 380.092 70.4304 380.494 69.7395C380.905 69.0399 381.111 68.2922 381.111 67.4964V64.899C380.971 65.0389 380.7 65.1701 380.298 65.2926C379.904 65.4062 379.454 65.5068 378.946 65.5943C378.439 65.673 377.945 65.7473 377.464 65.8173C376.983 65.8785 376.581 65.931 376.257 65.9747C375.496 66.0709 374.801 66.2327 374.171 66.4601C373.551 66.6874 373.052 67.0154 372.676 67.4439C372.309 67.8637 372.125 68.4234 372.125 69.123C372.125 70.0937 372.484 70.8283 373.201 71.3268C373.918 71.8165 374.832 72.0614 375.942 72.0614ZM397.8 75.1572C396.174 75.1572 394.722 74.7418 393.445 73.911C392.177 73.0715 391.18 71.8778 390.454 70.3298C389.737 68.7732 389.378 66.9061 389.378 64.7285C389.378 62.5509 389.741 60.6882 390.467 59.1402C391.202 57.5923 392.208 56.4073 393.484 55.5853C394.761 54.7632 396.209 54.3522 397.826 54.3522C399.077 54.3522 400.083 54.5621 400.844 54.9819C401.613 55.3929 402.208 55.8739 402.628 56.4248C403.056 56.9758 403.388 57.4612 403.625 57.8809H403.861V47.8982H407.783V74.7637H403.952V71.6285H403.625C403.388 72.057 403.047 72.5468 402.601 73.0977C402.164 73.6487 401.561 74.1297 400.791 74.5407C400.021 74.9517 399.024 75.1572 397.8 75.1572ZM398.666 71.8122C399.794 71.8122 400.747 71.5148 401.526 70.9201C402.313 70.3167 402.907 69.4815 403.31 68.4146C403.721 67.3477 403.926 66.1059 403.926 64.6891C403.926 63.2899 403.725 62.0655 403.323 61.0161C402.921 59.9667 402.33 59.149 401.552 58.5631C400.774 57.9771 399.812 57.6842 398.666 57.6842C397.485 57.6842 396.501 57.9902 395.714 58.6024C394.927 59.2146 394.333 60.0498 393.93 61.1079C393.537 62.1661 393.34 63.3598 393.34 64.6891C393.34 66.0359 393.541 67.2471 393.943 68.3228C394.346 69.3985 394.94 70.2511 395.728 70.8808C396.523 71.5017 397.503 71.8122 398.666 71.8122ZM419.245 75.2097C417.968 75.2097 416.813 74.9736 415.782 74.5013C414.75 74.0204 413.932 73.3251 413.328 72.4156C412.734 71.5061 412.436 70.3911 412.436 69.0705C412.436 67.9336 412.655 66.9979 413.092 66.2633C413.53 65.5287 414.12 64.9471 414.863 64.5186C415.607 64.0901 416.437 63.7665 417.356 63.5479C418.274 63.3292 419.21 63.1631 420.163 63.0494C421.37 62.9095 422.349 62.7958 423.101 62.7083C423.853 62.6121 424.4 62.4591 424.741 62.2492C425.082 62.0393 425.253 61.6982 425.253 61.226V61.1342C425.253 59.9885 424.929 59.1009 424.282 58.4712C423.644 57.8416 422.69 57.5267 421.422 57.5267C420.102 57.5267 419.061 57.8197 418.3 58.4056C417.548 58.9828 417.028 59.6256 416.739 60.334L413.053 59.4944C413.49 58.2701 414.129 57.2819 414.968 56.5298C415.817 55.7689 416.792 55.218 417.894 54.8769C418.995 54.5271 420.154 54.3522 421.37 54.3522C422.174 54.3522 423.027 54.4484 423.928 54.6408C424.837 54.8245 425.686 55.1655 426.473 55.664C427.268 56.1625 427.92 56.8752 428.427 57.8022C428.934 58.7205 429.188 59.9142 429.188 61.3834V74.7637H425.358V72.0089H425.2C424.947 72.5162 424.566 73.0146 424.059 73.5044C423.552 73.9941 422.9 74.4008 422.104 74.7243C421.309 75.0479 420.355 75.2097 419.245 75.2097ZM420.097 72.0614C421.182 72.0614 422.109 71.8471 422.878 71.4186C423.657 70.9901 424.247 70.4304 424.649 69.7395C425.06 69.0399 425.266 68.2922 425.266 67.4964V64.899C425.126 65.0389 424.855 65.1701 424.452 65.2926C424.059 65.4062 423.609 65.5068 423.101 65.5943C422.594 65.673 422.1 65.7473 421.619 65.8173C421.138 65.8785 420.736 65.931 420.412 65.9747C419.651 66.0709 418.956 66.2327 418.326 66.4601C417.706 66.6874 417.207 67.0154 416.831 67.4439C416.464 67.8637 416.28 68.4234 416.28 69.123C416.28 70.0937 416.639 70.8283 417.356 71.3268C418.073 71.8165 418.987 72.0614 420.097 72.0614ZM439.358 47.8982L439.017 67.0372H435.383L435.042 47.8982H439.358ZM437.206 75.0129C436.481 75.0129 435.86 74.7593 435.344 74.2521C434.828 73.7361 434.574 73.1152 434.583 72.3894C434.574 71.6722 434.828 71.0601 435.344 70.5528C435.86 70.0369 436.481 69.7789 437.206 69.7789C437.915 69.7789 438.527 70.0369 439.043 70.5528C439.559 71.0601 439.821 71.6722 439.83 72.3894C439.821 72.8703 439.694 73.312 439.45 73.7143C439.213 74.1078 438.899 74.4226 438.505 74.6588C438.112 74.8949 437.679 75.0129 437.206 75.0129Z" fill="white"/>
<path d="M154.337 92.2079L162.084 114.173H162.389L170.136 92.2079H173.448L163.867 118.3H160.606L151.025 92.2079H154.337ZM181.041 118.759C179.801 118.759 178.676 118.526 177.665 118.058C176.654 117.583 175.852 116.899 175.257 116.007C174.663 115.107 174.365 114.02 174.365 112.746C174.365 111.624 174.586 110.716 175.028 110.019C175.47 109.314 176.06 108.762 176.799 108.363C177.538 107.964 178.353 107.666 179.245 107.471C180.145 107.267 181.05 107.106 181.959 106.987C183.148 106.834 184.112 106.719 184.851 106.643C185.598 106.558 186.142 106.418 186.482 106.222C186.83 106.027 187.004 105.687 187.004 105.203V105.101C187.004 103.844 186.66 102.867 185.972 102.171C185.292 101.474 184.26 101.126 182.876 101.126C181.441 101.126 180.315 101.44 179.5 102.069C178.684 102.698 178.111 103.369 177.78 104.082L174.926 103.063C175.436 101.874 176.115 100.948 176.964 100.285C177.822 99.6144 178.757 99.1472 179.767 98.8839C180.787 98.6121 181.789 98.4762 182.774 98.4762C183.403 98.4762 184.125 98.5526 184.94 98.7055C185.764 98.8499 186.558 99.1514 187.322 99.6101C188.095 100.069 188.737 100.761 189.246 101.687C189.756 102.613 190.011 103.853 190.011 105.407V118.3H187.004V115.65H186.851C186.647 116.075 186.307 116.53 185.832 117.014C185.356 117.498 184.723 117.91 183.933 118.249C183.144 118.589 182.18 118.759 181.041 118.759ZM181.5 116.058C182.689 116.058 183.691 115.825 184.507 115.357C185.331 114.89 185.951 114.287 186.367 113.548C186.792 112.809 187.004 112.032 187.004 111.217V108.465C186.877 108.618 186.596 108.758 186.163 108.885C185.738 109.004 185.246 109.11 184.685 109.204C184.133 109.289 183.594 109.365 183.067 109.433C182.549 109.493 182.129 109.543 181.806 109.586C181.024 109.688 180.294 109.853 179.614 110.083C178.943 110.304 178.4 110.639 177.984 111.089C177.576 111.531 177.372 112.134 177.372 112.898C177.372 113.943 177.759 114.733 178.532 115.268C179.313 115.795 180.302 116.058 181.5 116.058ZM198.505 92.2079V118.3H195.499V92.2079H198.505ZM211.963 118.708C210.196 118.708 208.646 118.288 207.312 117.447C205.987 116.606 204.951 115.43 204.204 113.918C203.465 112.406 203.095 110.639 203.095 108.618C203.095 106.579 203.465 104.8 204.204 103.279C204.951 101.759 205.987 100.578 207.312 99.7375C208.646 98.8966 210.196 98.4762 211.963 98.4762C213.729 98.4762 215.275 98.8966 216.6 99.7375C217.934 100.578 218.97 101.759 219.709 103.279C220.456 104.8 220.83 106.579 220.83 108.618C220.83 110.639 220.456 112.406 219.709 113.918C218.97 115.43 217.934 116.606 216.6 117.447C215.275 118.288 213.729 118.708 211.963 118.708ZM211.963 116.007C213.305 116.007 214.409 115.663 215.275 114.975C216.142 114.287 216.783 113.383 217.199 112.261C217.615 111.14 217.823 109.926 217.823 108.618C217.823 107.31 217.615 106.091 217.199 104.961C216.783 103.831 216.142 102.918 215.275 102.222C214.409 101.525 213.305 101.177 211.963 101.177C210.621 101.177 209.516 101.525 208.65 102.222C207.784 102.918 207.142 103.831 206.726 104.961C206.31 106.091 206.102 107.31 206.102 108.618C206.102 109.926 206.31 111.14 206.726 112.261C207.142 113.383 207.784 114.287 208.65 114.975C209.516 115.663 210.621 116.007 211.963 116.007ZM225.42 118.3V98.731H228.325V101.687H228.528C228.885 100.719 229.531 99.9329 230.465 99.3298C231.399 98.7268 232.453 98.4252 233.625 98.4252C233.846 98.4252 234.122 98.4295 234.453 98.438C234.784 98.4465 235.035 98.4592 235.205 98.4762V101.534C235.103 101.508 234.869 101.47 234.504 101.419C234.147 101.36 233.769 101.33 233.37 101.33C232.419 101.33 231.569 101.53 230.822 101.929C230.083 102.32 229.497 102.863 229.064 103.56C228.639 104.248 228.427 105.033 228.427 105.917V118.3H225.42ZM240.96 118.504C240.332 118.504 239.792 118.279 239.342 117.829C238.892 117.379 238.667 116.84 238.667 116.211C238.667 115.582 238.892 115.043 239.342 114.593C239.792 114.143 240.332 113.918 240.96 113.918C241.589 113.918 242.128 114.143 242.578 114.593C243.028 115.043 243.253 115.582 243.253 116.211C243.253 116.627 243.147 117.009 242.935 117.358C242.731 117.706 242.455 117.986 242.107 118.199C241.767 118.402 241.385 118.504 240.96 118.504ZM240.96 103.98C240.332 103.98 239.792 103.755 239.342 103.305C238.892 102.855 238.667 102.315 238.667 101.687C238.667 101.058 238.892 100.519 239.342 100.069C239.792 99.6186 240.332 99.3935 240.96 99.3935C241.589 99.3935 242.128 99.6186 242.578 100.069C243.028 100.519 243.253 101.058 243.253 101.687C243.253 102.103 243.147 102.485 242.935 102.833C242.731 103.182 242.455 103.462 242.107 103.674C241.767 103.878 241.385 103.98 240.96 103.98ZM259.147 118.3V92.2079H267.964C270.002 92.2079 271.675 92.5561 272.983 93.2526C274.291 93.9406 275.26 94.8876 275.888 96.0937C276.517 97.2998 276.831 98.6716 276.831 100.209C276.831 101.746 276.517 103.11 275.888 104.299C275.26 105.488 274.296 106.422 272.996 107.102C271.697 107.773 270.036 108.108 268.015 108.108H260.88V105.254H267.913C269.306 105.254 270.427 105.05 271.276 104.643C272.134 104.235 272.754 103.657 273.136 102.91C273.527 102.154 273.722 101.254 273.722 100.209C273.722 99.1642 273.527 98.2511 273.136 97.4697C272.745 96.6883 272.121 96.0852 271.263 95.6605C270.405 95.2274 269.272 95.0108 267.862 95.0108H262.307V118.3H259.147ZM271.429 106.579L277.85 118.3H274.181L267.862 106.579H271.429ZM289.333 121.562V88.9463H291.422V121.562H289.333ZM296.365 98.731C296.212 97.44 295.592 96.4377 294.505 95.7243C293.418 95.0108 292.085 94.654 290.505 94.654C289.35 94.654 288.339 94.8409 287.472 95.2146C286.615 95.5884 285.944 96.1022 285.459 96.7562C284.984 97.4102 284.746 98.1534 284.746 98.9858C284.746 99.6823 284.912 100.281 285.243 100.782C285.583 101.275 286.016 101.687 286.542 102.018C287.069 102.341 287.621 102.608 288.199 102.821C288.776 103.025 289.307 103.19 289.791 103.318L292.441 104.031C293.121 104.209 293.877 104.456 294.709 104.77C295.55 105.084 296.353 105.513 297.117 106.057C297.89 106.592 298.527 107.28 299.028 108.121C299.529 108.962 299.78 109.994 299.78 111.217C299.78 112.627 299.41 113.901 298.671 115.039C297.941 116.177 296.871 117.082 295.461 117.753C294.059 118.424 292.356 118.759 290.352 118.759C288.483 118.759 286.865 118.458 285.498 117.855C284.139 117.251 283.068 116.411 282.287 115.332C281.514 114.253 281.077 113 280.975 111.573H284.236C284.321 112.559 284.653 113.374 285.23 114.02C285.816 114.657 286.555 115.132 287.447 115.447C288.347 115.752 289.316 115.905 290.352 115.905C291.558 115.905 292.641 115.71 293.601 115.319C294.56 114.92 295.321 114.368 295.881 113.663C296.442 112.949 296.722 112.117 296.722 111.166C296.722 110.299 296.48 109.594 295.996 109.051C295.512 108.507 294.875 108.066 294.085 107.726C293.295 107.386 292.441 107.089 291.524 106.834L288.313 105.917C286.275 105.331 284.661 104.494 283.472 103.407C282.283 102.32 281.688 100.897 281.688 99.1387C281.688 97.6778 282.083 96.4037 282.873 95.3166C283.672 94.2209 284.742 93.3715 286.084 92.7685C287.434 92.1569 288.942 91.8511 290.607 91.8511C292.288 91.8511 293.783 92.1527 295.091 92.7557C296.399 93.3503 297.436 94.1657 298.2 95.2019C298.973 96.2381 299.381 97.4145 299.423 98.731H296.365ZM323.78 92.2079V118.3H320.62V95.5204H320.467L314.097 99.7503V96.5396L320.62 92.2079H323.78ZM331.284 118.3V116.007L339.897 106.579C340.907 105.475 341.74 104.515 342.394 103.7C343.048 102.876 343.532 102.103 343.846 101.381C344.169 100.651 344.33 99.8862 344.33 99.0877C344.33 98.1704 344.109 97.3763 343.668 96.7053C343.235 96.0343 342.64 95.5162 341.884 95.1509C341.128 94.7857 340.279 94.6031 339.336 94.6031C338.334 94.6031 337.459 94.8112 336.711 95.2274C335.972 95.6351 335.399 96.2084 334.991 96.9473C334.592 97.6863 334.393 98.5526 334.393 99.5464H331.386C331.386 98.0175 331.738 96.6755 332.443 95.5204C333.148 94.3653 334.108 93.4649 335.323 92.8194C336.546 92.1739 337.917 91.8511 339.438 91.8511C340.967 91.8511 342.321 92.1739 343.502 92.8194C344.683 93.4649 345.609 94.3355 346.28 95.4312C346.951 96.5269 347.286 97.7457 347.286 99.0877C347.286 100.048 347.112 100.986 346.764 101.903C346.424 102.812 345.829 103.827 344.98 104.948C344.139 106.061 342.971 107.42 341.476 109.025L335.616 115.294V115.498H347.745V118.3H331.284ZM361.67 118.657C360.6 118.64 359.53 118.436 358.459 118.046C357.389 117.655 356.412 116.997 355.529 116.071C354.646 115.137 353.937 113.875 353.401 112.287C352.866 110.69 352.599 108.686 352.599 106.273C352.599 103.963 352.815 101.916 353.249 100.132C353.682 98.3403 354.31 96.8327 355.134 95.6096C355.958 94.378 356.952 93.4437 358.115 92.8067C359.288 92.1696 360.608 91.8511 362.078 91.8511C363.539 91.8511 364.838 92.1442 365.976 92.7302C367.123 93.3078 368.057 94.1147 368.779 95.1509C369.501 96.1872 369.968 97.3805 370.181 98.731H367.072C366.783 97.5589 366.223 96.5864 365.39 95.8134C364.558 95.0405 363.454 94.654 362.078 94.654C360.056 94.654 358.464 95.5331 357.3 97.2913C356.145 99.0495 355.563 101.517 355.555 104.694H355.758C356.234 103.972 356.799 103.356 357.453 102.846C358.115 102.328 358.846 101.929 359.644 101.649C360.443 101.368 361.288 101.228 362.18 101.228C363.675 101.228 365.042 101.602 366.282 102.349C367.522 103.088 368.516 104.112 369.263 105.42C370.011 106.719 370.385 108.21 370.385 109.892C370.385 111.506 370.024 112.983 369.302 114.325C368.58 115.659 367.565 116.721 366.257 117.511C364.957 118.292 363.428 118.674 361.67 118.657ZM361.67 115.854C362.74 115.854 363.7 115.587 364.549 115.052C365.407 114.517 366.083 113.799 366.575 112.898C367.076 111.998 367.327 110.996 367.327 109.892C367.327 108.813 367.085 107.832 366.601 106.949C366.125 106.057 365.467 105.348 364.626 104.821C363.793 104.294 362.842 104.031 361.772 104.031C360.965 104.031 360.213 104.192 359.517 104.515C358.82 104.829 358.209 105.263 357.682 105.815C357.164 106.367 356.756 107 356.459 107.713C356.162 108.418 356.013 109.161 356.013 109.943C356.013 110.979 356.255 111.947 356.739 112.848C357.232 113.748 357.903 114.474 358.752 115.026C359.61 115.578 360.583 115.854 361.67 115.854ZM378.704 114.733L378.5 116.109C378.356 117.077 378.135 118.114 377.838 119.218C377.549 120.322 377.247 121.362 376.933 122.339C376.619 123.316 376.36 124.093 376.156 124.671H373.863C373.973 124.127 374.118 123.409 374.296 122.518C374.474 121.626 374.653 120.628 374.831 119.524C375.018 118.428 375.171 117.307 375.29 116.16L375.443 114.733H378.704ZM392.059 118.657C390.378 118.657 388.878 118.368 387.562 117.791C386.254 117.213 385.213 116.411 384.441 115.383C383.676 114.347 383.26 113.145 383.192 111.777H386.403C386.471 112.618 386.759 113.344 387.269 113.956C387.779 114.559 388.445 115.026 389.269 115.357C390.093 115.689 391.006 115.854 392.008 115.854C393.13 115.854 394.123 115.659 394.99 115.268C395.856 114.877 396.536 114.334 397.028 113.637C397.521 112.941 397.767 112.134 397.767 111.217C397.767 110.257 397.529 109.412 397.054 108.681C396.578 107.942 395.882 107.365 394.964 106.949C394.047 106.532 392.926 106.324 391.601 106.324H389.511V103.521H391.601C392.637 103.521 393.546 103.335 394.327 102.961C395.117 102.587 395.733 102.061 396.175 101.381C396.625 100.702 396.85 99.9031 396.85 98.9858C396.85 98.1025 396.654 97.3338 396.264 96.6798C395.873 96.0258 395.321 95.5162 394.607 95.1509C393.903 94.7857 393.07 94.6031 392.11 94.6031C391.21 94.6031 390.361 94.7687 389.562 95.1C388.772 95.4227 388.127 95.8941 387.626 96.5142C387.125 97.1257 386.853 97.8647 386.81 98.731H383.753C383.804 97.3635 384.215 96.1659 384.988 95.1382C385.761 94.102 386.772 93.2951 388.021 92.7175C389.278 92.1399 390.658 91.8511 392.161 91.8511C393.775 91.8511 395.16 92.1781 396.315 92.8322C397.47 93.4777 398.357 94.3313 398.977 95.393C399.598 96.4547 399.908 97.6014 399.908 98.8329C399.908 100.302 399.521 101.555 398.748 102.591C397.984 103.628 396.943 104.345 395.627 104.745V104.948C397.274 105.22 398.561 105.921 399.487 107.051C400.413 108.172 400.876 109.56 400.876 111.217C400.876 112.635 400.489 113.909 399.716 115.039C398.952 116.16 397.907 117.043 396.582 117.689C395.257 118.334 393.75 118.657 392.059 118.657ZM415.26 92.2079V118.3H412.1V95.5204H411.947L405.577 99.7503V96.5396L412.1 92.2079H415.26Z" fill="white"/>
<path d="M772.247 68.3295C771.192 68.3295 770.235 68.1308 769.375 67.7335C768.515 67.3289 767.833 66.7473 767.327 65.9887C766.821 65.2229 766.568 64.2982 766.568 63.2145C766.568 62.2609 766.756 61.4879 767.132 60.8955C767.508 60.2958 768.01 59.8262 768.638 59.4867C769.267 59.1471 769.96 58.8943 770.719 58.7281C771.485 58.5547 772.254 58.4175 773.027 58.3163C774.038 58.1863 774.858 58.0887 775.487 58.0237C776.123 57.9515 776.585 57.8323 776.874 57.6661C777.17 57.4999 777.318 57.211 777.318 56.7992V56.7125C777.318 55.6433 777.026 54.8124 776.441 54.22C775.863 53.6276 774.985 53.3314 773.807 53.3314C772.586 53.3314 771.629 53.5987 770.936 54.1333C770.242 54.6679 769.754 55.2387 769.473 55.8455L767.045 54.9786C767.479 53.9672 768.057 53.1797 768.779 52.6162C769.509 52.0454 770.303 51.6481 771.163 51.4241C772.03 51.193 772.883 51.0774 773.721 51.0774C774.255 51.0774 774.869 51.1424 775.563 51.2724C776.264 51.3952 776.939 51.6517 777.589 52.0418C778.247 52.432 778.792 53.0208 779.226 53.8082C779.659 54.5957 779.876 55.6505 779.876 56.9726V67.9394H777.318V65.6853H777.188C777.015 66.0465 776.726 66.4331 776.321 66.8448C775.917 67.2566 775.379 67.607 774.707 67.896C774.035 68.185 773.215 68.3295 772.247 68.3295ZM772.637 66.0321C773.648 66.0321 774.501 65.8334 775.194 65.4361C775.895 65.0387 776.423 64.5258 776.777 63.8972C777.138 63.2687 777.318 62.6077 777.318 61.9141V59.5734C777.21 59.7034 776.972 59.8226 776.603 59.931C776.242 60.0321 775.823 60.1224 775.346 60.2019C774.877 60.2742 774.418 60.3392 773.97 60.397C773.529 60.4475 773.172 60.4909 772.897 60.527C772.232 60.6137 771.611 60.7546 771.033 60.9497C770.462 61.1375 770 61.4229 769.646 61.8058C769.299 62.1814 769.126 62.6944 769.126 63.3446C769.126 64.2332 769.455 64.9051 770.112 65.3602C770.777 65.8081 771.618 66.0321 772.637 66.0321ZM791.263 74.5281C790.027 74.5281 788.965 74.3692 788.077 74.0513C787.188 73.7406 786.447 73.3288 785.855 72.8159C785.27 72.3102 784.804 71.7684 784.457 71.1904L786.494 69.7599C786.726 70.0634 787.018 70.4101 787.372 70.8003C787.726 71.1976 788.21 71.5408 788.824 71.8298C789.446 72.126 790.258 72.2741 791.263 72.2741C792.606 72.2741 793.715 71.949 794.59 71.2988C795.464 70.6486 795.901 69.6299 795.901 68.2428V64.8617H795.684C795.496 65.1652 795.229 65.5408 794.882 65.9887C794.543 66.4294 794.051 66.8232 793.408 67.17C792.773 67.5095 791.913 67.6793 790.829 67.6793C789.485 67.6793 788.279 67.3614 787.21 66.7256C786.148 66.0899 785.306 65.1652 784.685 63.9514C784.071 62.7377 783.764 61.2639 783.764 59.53C783.764 57.8251 784.063 56.3404 784.663 55.0761C785.263 53.8046 786.097 52.8221 787.166 52.1285C788.236 51.4278 789.471 51.0774 790.872 51.0774C791.956 51.0774 792.816 51.258 793.452 51.6192C794.095 51.9732 794.586 52.3778 794.925 52.8329C795.272 53.2808 795.54 53.6493 795.727 53.9383H795.987V51.2941H798.458V68.4162C798.458 69.8466 798.133 71.0098 797.483 71.9056C796.84 72.8087 795.973 73.4697 794.882 73.8887C793.798 74.315 792.592 74.5281 791.263 74.5281ZM791.176 65.3819C792.202 65.3819 793.069 65.1471 793.777 64.6775C794.485 64.2079 795.023 63.5324 795.391 62.651C795.76 61.7696 795.944 60.7149 795.944 59.4867C795.944 58.2874 795.763 57.229 795.402 56.3115C795.041 55.394 794.506 54.6752 793.798 54.155C793.09 53.6348 792.216 53.3748 791.176 53.3748C790.092 53.3748 789.189 53.6493 788.467 54.1983C787.752 54.7474 787.213 55.4843 786.852 56.409C786.498 57.3338 786.321 58.3597 786.321 59.4867C786.321 60.6426 786.502 61.6649 786.863 62.5535C787.231 63.4349 787.773 64.1284 788.488 64.6341C789.211 65.1326 790.107 65.3819 791.176 65.3819ZM809.902 68.2861C808.399 68.2861 807.081 67.9285 805.946 67.2133C804.819 66.4981 803.938 65.4975 803.302 64.2115C802.674 62.9256 802.359 61.4229 802.359 59.7034C802.359 57.9695 802.674 56.456 803.302 55.1628C803.938 53.8696 804.819 52.8654 805.946 52.1502C807.081 51.435 808.399 51.0774 809.902 51.0774C811.405 51.0774 812.719 51.435 813.846 52.1502C814.981 52.8654 815.862 53.8696 816.491 55.1628C817.126 56.456 817.444 57.9695 817.444 59.7034C817.444 61.4229 817.126 62.9256 816.491 64.2115C815.862 65.4975 814.981 66.4981 813.846 67.2133C812.719 67.9285 811.405 68.2861 809.902 68.2861ZM809.902 65.9887C811.043 65.9887 811.983 65.6962 812.719 65.111C813.456 64.5258 814.002 63.7564 814.356 62.8027C814.71 61.8491 814.887 60.816 814.887 59.7034C814.887 58.5908 814.71 57.5541 814.356 56.5933C814.002 55.6324 813.456 54.8558 812.719 54.2634C811.983 53.671 811.043 53.3748 809.902 53.3748C808.76 53.3748 807.821 53.671 807.084 54.2634C806.347 54.8558 805.802 55.6324 805.448 56.5933C805.094 57.5541 804.917 58.5908 804.917 59.7034C804.917 60.816 805.094 61.8491 805.448 62.8027C805.802 63.7564 806.347 64.5258 807.084 65.111C807.821 65.6962 808.76 65.9887 809.902 65.9887ZM821.348 67.9394V51.2941H823.819V53.8082H823.992C824.296 52.9846 824.845 52.3164 825.64 51.8034C826.434 51.2905 827.33 51.034 828.327 51.034C828.515 51.034 828.75 51.0376 829.031 51.0449C829.313 51.0521 829.526 51.0629 829.671 51.0774V53.6782C829.584 53.6565 829.385 53.624 829.075 53.5807C828.771 53.5301 828.45 53.5048 828.11 53.5048C827.301 53.5048 826.579 53.6746 825.943 54.0141C825.314 54.3465 824.816 54.8088 824.447 55.4012C824.086 55.9864 823.906 56.6547 823.906 57.406V67.9394H821.348ZM837.601 68.3295C836.546 68.3295 835.589 68.1308 834.729 67.7335C833.869 67.3289 833.186 66.7473 832.681 65.9887C832.175 65.2229 831.922 64.2982 831.922 63.2145C831.922 62.2609 832.11 61.4879 832.486 60.8955C832.861 60.2958 833.363 59.8262 833.992 59.4867C834.62 59.1471 835.314 58.8943 836.073 58.7281C836.838 58.5547 837.608 58.4175 838.381 58.3163C839.392 58.1863 840.212 58.0887 840.841 58.0237C841.477 57.9515 841.939 57.8323 842.228 57.6661C842.524 57.4999 842.672 57.211 842.672 56.7992V56.7125C842.672 55.6433 842.38 54.8124 841.794 54.22C841.216 53.6276 840.339 53.3314 839.161 53.3314C837.94 53.3314 836.983 53.5987 836.289 54.1333C835.596 54.6679 835.108 55.2387 834.826 55.8455L832.399 54.9786C832.832 53.9672 833.41 53.1797 834.133 52.6162C834.863 52.0454 835.657 51.6481 836.517 51.4241C837.384 51.193 838.236 51.0774 839.074 51.0774C839.609 51.0774 840.223 51.1424 840.917 51.2724C841.617 51.3952 842.293 51.6517 842.943 52.0418C843.601 52.432 844.146 53.0208 844.579 53.8082C845.013 54.5957 845.23 55.6505 845.23 56.9726V67.9394H842.672V65.6853H842.542C842.369 66.0465 842.08 66.4331 841.675 66.8448C841.271 67.2566 840.732 67.607 840.061 67.896C839.389 68.185 838.569 68.3295 837.601 68.3295ZM837.991 66.0321C839.002 66.0321 839.855 65.8334 840.548 65.4361C841.249 65.0387 841.776 64.5258 842.13 63.8972C842.492 63.2687 842.672 62.6077 842.672 61.9141V59.5734C842.564 59.7034 842.325 59.8226 841.957 59.931C841.596 60.0321 841.177 60.1224 840.7 60.2019C840.23 60.2742 839.772 60.3392 839.324 60.397C838.883 60.4475 838.525 60.4909 838.251 60.527C837.586 60.6137 836.965 60.7546 836.387 60.9497C835.816 61.1375 835.354 61.4229 835 61.8058C834.653 62.1814 834.48 62.6944 834.48 63.3446C834.48 64.2332 834.808 64.9051 835.466 65.3602C836.13 65.8081 836.972 66.0321 837.991 66.0321Z" fill="white" fill-opacity="0.46"/>
<rect x="31.3411" y="34.6375" width="94.848" height="94.848" rx="25.5677" fill="#4246FF"/>
<path d="M90.0355 59.5206H67.4946C61.2701 59.5206 56.2241 64.5665 56.2241 70.791V93.332C56.2241 94.2607 56.3365 95.1633 56.5483 96.0267C76.4537 95.8536 92.5571 79.7501 92.7303 59.8448C91.8668 59.6329 90.9643 59.5206 90.0355 59.5206Z" fill="white"/>
<path d="M101.306 93.332V70.791C101.306 69.4867 101.084 68.2341 100.677 67.0688C97.4992 85.919 82.6225 100.796 63.7724 103.973C64.9376 104.381 66.1902 104.602 67.4946 104.602H90.0355C96.26 104.602 101.306 99.5565 101.306 93.332Z" fill="white"/>
</g>
<defs>
<filter id="filter0_b_1993_8441" x="-80.8236" y="-80.8236" width="1060.64" height="325.775" filterUnits="userSpaceOnUse" color-interpolation-filters="sRGB">
<feFlood flood-opacity="0" result="BackgroundImageFix"/>
<feGaussianBlur in="BackgroundImageFix" stdDeviation="40.4118"/>
<feComposite in2="SourceAlpha" operator="in" result="effect1_backgroundBlur_1993_8441"/>
<feBlend mode="normal" in="SourceGraphic" in2="effect1_backgroundBlur_1993_8441" result="shape"/>
</filter>
</defs>
</svg>
