<?xml version="1.0" standalone="no"?>
<!DOCTYPE svg PUBLIC "-//W3C//DTD SVG 20010904//EN"
 "http://www.w3.org/TR/2001/REC-SVG-20010904/DTD/svg10.dtd">
<svg version="1.0" xmlns="http://www.w3.org/2000/svg"
 width="500.000000pt" height="180.000000pt" viewBox="0 0 500.000000 180.000000"
 preserveAspectRatio="xMidYMid meet">

<g transform="translate(0.000000,180.000000) scale(0.100000,-0.100000)"
fill="#000000" stroke="none">
<path d="M4015 1630 l90 -6 -92 -2 -91 -2 -137 -132 c-125 -121 -135 -133
-113 -139 20 -6 18 -7 -12 -9 -27 -2 -30 -4 -10 -7 45 -7 114 -35 148 -60 26
-19 32 -21 32 -8 0 30 46 65 85 65 25 0 44 -8 60 -25 l25 -24 0 -331 0 -331
-25 -24 c-33 -34 -87 -34 -120 0 -14 13 -25 29 -25 35 0 6 -12 3 -27 -8 -74
-52 -116 -66 -193 -65 -93 1 -151 25 -222 90 -49 46 -108 147 -108 186 0 9 -4
17 -10 17 -5 0 -10 -8 -10 -17 0 -35 -59 -142 -100 -183 -76 -76 -205 -116
-294 -91 -22 6 -42 9 -44 6 -2 -2 11 -8 29 -14 28 -7 30 -9 10 -10 -23 -1
-112 -82 -124 -113 -3 -8 -6 -5 -7 7 -2 17 -12 -28 -24 -107 -4 -26 -12 -31
-61 -36 -54 -4 -83 10 -100 51 -8 18 -14 24 -15 15 0 -29 44 -70 86 -79 l39
-8 -39 3 c-36 2 -45 -3 -95 -51 -52 -49 -54 -53 -31 -54 19 -1 17 -3 -10 -8
-61 -11 659 -21 1570 -21 668 0 879 3 888 12 17 17 17 1459 0 1476 -9 9 -134
12 -513 10 -275 -1 -459 -5 -410 -8z m194 -336 l31 -26 0 -206 c1 -237 7 -276
50 -314 26 -24 39 -28 90 -28 74 0 104 14 133 59 21 34 22 49 25 251 1 118 5
225 7 237 6 25 51 53 85 53 12 0 35 -13 51 -29 l29 -29 0 -339 c0 -368 -6
-421 -54 -493 -61 -92 -160 -135 -311 -134 -119 0 -178 15 -218 55 -24 25 -28
35 -23 61 8 40 43 78 71 78 12 0 48 -9 81 -21 65 -23 156 -22 207 2 37 17 64
63 72 124 l8 50 -24 -22 c-73 -67 -221 -88 -312 -44 -56 27 -101 79 -122 140
-20 58 -22 536 -2 562 34 44 83 49 126 13z"/>
<path d="M779 1570 l-30 -29 3 -471 3 -472 24 -19 c25 -20 71 -25 100 -9 10 5
24 23 31 40 7 16 14 30 17 30 2 0 19 -11 36 -24 80 -61 225 -73 315 -27 140
72 222 250 193 422 -15 94 -43 151 -101 213 -68 72 -131 100 -230 100 -81 1
-125 -16 -189 -69 l-31 -27 0 157 0 157 -29 29 c-38 38 -74 38 -112 -1z m433
-423 c79 -43 122 -157 99 -262 -45 -201 -280 -239 -374 -60 -31 59 -30 173 2
238 51 104 171 140 273 84z"/>
<path d="M317 1550 c-114 -29 -247 -139 -247 -206 0 -23 34 -58 67 -68 27 -8
60 8 87 42 10 13 37 37 59 53 32 23 50 29 93 29 45 0 59 -5 89 -31 47 -42 63
-95 46 -157 -20 -77 -54 -123 -214 -294 -83 -90 -167 -180 -184 -201 -41 -47
-43 -88 -8 -122 l24 -25 263 0 c276 1 282 2 306 47 17 32 15 49 -10 77 -23 25
-25 26 -180 27 -87 0 -158 3 -158 6 0 3 39 46 86 96 122 129 162 182 200 262
75 157 62 297 -38 392 -64 62 -192 95 -281 73z"/>
<path d="M3553 1333 c9 -2 23 -2 30 0 6 3 -1 5 -18 5 -16 0 -22 -2 -12 -5z"/>
<path d="M1525 1285 l-25 -24 0 -239 c0 -274 8 -317 68 -384 49 -54 102 -78
178 -78 75 0 144 20 189 55 l35 26 0 -33 c0 -51 -39 -120 -80 -140 -49 -25
-150 -24 -218 2 -82 31 -132 6 -132 -67 0 -57 50 -87 164 -102 102 -12 194 1
272 39 69 34 106 75 137 154 19 47 21 78 25 379 2 180 1 344 -3 363 -9 50 -37
74 -84 74 -31 0 -44 -6 -60 -26 -20 -25 -21 -40 -21 -238 0 -185 -3 -216 -19
-253 -11 -23 -31 -49 -45 -58 -60 -40 -171 -25 -210 28 -20 26 -21 45 -26 269
-5 237 -5 240 -29 259 -33 27 -86 25 -116 -6z"/>
<path d="M3375 1238 l-40 -43 43 40 c23 21 42 40 42 42 0 8 -9 0 -45 -39z"/>
<path d="M3550 1147 c-25 -12 -44 -28 -42 -35 1 -6 -4 -11 -10 -9 -7 1 -12 -6
-12 -15 1 -10 -3 -15 -9 -11 -6 4 -8 0 -4 -11 4 -9 3 -15 -2 -12 -26 16 -41
-124 -20 -197 13 -47 63 -106 106 -123 39 -17 111 -18 150 -3 40 15 82 57 104
104 21 46 25 144 8 196 -40 118 -162 171 -269 116z"/>
<path d="M3305 1149 c-4 -6 -5 -12 -2 -15 2 -3 7 2 10 11 7 17 1 20 -8 4z"/>
<path d="M3260 1060 c0 -5 5 -10 10 -10 6 0 10 5 10 10 0 6 -4 10 -10 10 -5 0
-10 -4 -10 -10z"/>
<path d="M3093 945 c0 -33 2 -45 4 -27 2 18 2 45 0 60 -2 15 -4 0 -4 -33z"/>
<path d="M3066 823 c-6 -14 -5 -15 5 -6 7 7 10 15 7 18 -3 3 -9 -2 -12 -12z"/>
<path d="M3039 783 c-8 -9 -27 -24 -44 -35 -16 -10 -24 -18 -17 -18 12 0 93
69 81 70 -4 0 -13 -7 -20 -17z"/>
<path d="M2883 723 c15 -2 39 -2 55 0 15 2 2 4 -28 4 -30 0 -43 -2 -27 -4z"/>
</g>
</svg>
