<?xml version="1.0" standalone="no"?>
<!DOCTYPE svg PUBLIC "-//W3C//DTD SVG 20010904//EN"
 "http://www.w3.org/TR/2001/REC-SVG-20010904/DTD/svg10.dtd">
<svg version="1.0" xmlns="http://www.w3.org/2000/svg"
 width="500.000000pt" height="180.000000pt" viewBox="0 0 500.000000 180.000000"
 preserveAspectRatio="xMidYMid meet">

<g transform="translate(0.000000,180.000000) scale(0.100000,-0.100000)"
fill="#000000" stroke="none">
<path d="M4010 1630 l85 -6 -90 -2 -89 -2 -133 -135 c-107 -109 -128 -135
-110 -136 14 -1 9 -4 -13 -9 -31 -7 -32 -8 -8 -9 38 -1 106 -29 146 -58 26
-20 32 -21 32 -8 0 30 46 65 85 65 25 0 44 -8 60 -25 l25 -24 0 -331 0 -331
-25 -24 c-33 -34 -87 -34 -120 0 -14 13 -25 29 -25 35 0 6 -12 3 -27 -8 -74
-52 -116 -66 -193 -65 -93 1 -151 25 -222 90 -49 46 -108 147 -108 186 0 9 -4
17 -10 17 -5 0 -10 -8 -10 -17 0 -35 -59 -142 -100 -183 -76 -76 -205 -116
-294 -91 -22 6 -42 9 -44 6 -2 -2 11 -8 29 -14 31 -8 32 -9 8 -10 -18 -1 -42
-18 -78 -55 -28 -30 -52 -49 -52 -43 -1 10 -9 -31 -23 -113 -4 -27 -16 -39
-33 -33 -10 4 -14 2 -10 -4 7 -11 -71 -2 -92 11 -7 5 -19 22 -27 40 -7 17 -13
23 -14 14 0 -29 44 -70 86 -79 l39 -8 -40 3 c-37 2 -44 -2 -92 -51 -45 -46
-49 -53 -30 -54 13 -1 8 -4 -13 -8 -60 -11 668 -21 1576 -21 663 0 873 3 882
12 17 17 17 1459 0 1476 -9 9 -134 12 -513 10 -275 -1 -462 -5 -415 -8z m199
-336 l31 -26 0 -206 c1 -237 7 -276 50 -314 26 -24 39 -28 90 -28 74 0 104 14
133 59 21 34 22 49 25 251 1 118 5 225 7 237 6 25 51 53 85 53 12 0 35 -13 51
-30 l30 -30 -3 -362 c-4 -416 -6 -427 -88 -509 -69 -68 -138 -92 -270 -93
-123 0 -182 14 -223 55 -24 25 -28 35 -23 61 8 40 43 78 71 78 12 0 48 -9 81
-21 65 -23 156 -22 207 2 37 17 64 63 72 124 l8 50 -24 -22 c-73 -67 -221 -88
-312 -44 -56 27 -101 79 -122 140 -20 58 -22 536 -2 562 34 44 83 49 126 13z"/>
<path d="M3553 1333 c9 -2 23 -2 30 0 6 3 -1 5 -18 5 -16 0 -22 -2 -12 -5z"/>
<path d="M3375 1238 l-40 -43 43 40 c23 21 42 40 42 42 0 8 -9 0 -45 -39z"/>
<path d="M3550 1147 c-25 -12 -44 -28 -42 -35 1 -6 -4 -11 -10 -9 -7 1 -12 -6
-12 -15 1 -10 -3 -15 -9 -11 -6 4 -8 0 -4 -11 4 -9 3 -15 -2 -12 -26 16 -41
-124 -20 -197 13 -47 63 -106 106 -123 39 -17 111 -18 150 -3 40 15 82 57 104
104 21 46 25 144 8 196 -40 118 -162 171 -269 116z"/>
<path d="M3305 1149 c-4 -6 -5 -12 -2 -15 2 -3 7 2 10 11 7 17 1 20 -8 4z"/>
<path d="M3260 1061 c0 -6 5 -13 10 -16 6 -3 10 1 10 9 0 9 -4 16 -10 16 -5 0
-10 -4 -10 -9z"/>
<path d="M3093 945 c0 -33 2 -45 4 -27 2 18 2 45 0 60 -2 15 -4 0 -4 -33z"/>
<path d="M3066 823 c-6 -14 -5 -15 5 -6 7 7 10 15 7 18 -3 3 -9 -2 -12 -12z"/>
<path d="M3039 783 c-8 -9 -27 -24 -44 -35 -16 -10 -24 -18 -17 -18 12 0 93
69 81 70 -4 0 -13 -7 -20 -17z"/>
<path d="M2883 723 c15 -2 39 -2 55 0 15 2 2 4 -28 4 -30 0 -43 -2 -27 -4z"/>
</g>
</svg>
